<?xml version="1.0" encoding="iso-8859-1"?>
<!-- Uploaded to: SVG Repo, www.svgrepo.com, Generator: SVG Repo Mixer Tools -->
<svg version="1.1" id="Layer_1" xmlns="http://www.w3.org/2000/svg" xmlns:xlink="http://www.w3.org/1999/xlink" 
	 viewBox="0 0 512 512" xml:space="preserve">
<path style="fill:#E6E6E6;" d="M81.715,428.639c5.096,11.79,7.651,24.374,7.651,36.957s-2.554,25.166-7.651,36.957v0.013
	l-25.858-17.34v-0.013c3.788-5.612,5.977-12.357,5.977-19.617c0-7.273-2.202-14.018-5.977-19.63l25.858-17.34V428.639z"/>
<g>
	<path style="fill:#F7B239;" d="M55.857,445.966c3.775,5.612,5.977,12.357,5.977,19.63c0,7.26-2.189,14.005-5.977,19.617v0.013
		l-29.268-19.63L55.857,445.966z"/>
	<path style="fill:#F7B239;" d="M254.859,465.596h0.478c0,12.659-2.882,25.317-8.645,36.969H81.715v-0.013
		c5.096-11.79,7.651-24.374,7.651-36.957h0.013H254.859z"/>
	<path style="fill:#F7B239;" d="M81.715,428.626h164.978c5.763,11.652,8.645,24.311,8.645,36.969h-0.478H89.378h-0.013
		c0-12.583-2.554-25.166-7.651-36.957C81.715,428.639,81.715,428.626,81.715,428.626z"/>
</g>
<g>
	<path style="fill:#F95428;" d="M289.199,428.626c5.763,11.652,8.645,24.311,8.645,36.969s-2.882,25.317-8.645,36.969h-42.506
		c5.763-11.652,8.645-24.311,8.645-36.969s-2.882-25.317-8.645-36.969H289.199z"/>
	<path style="fill:#F95428;" d="M419.875,306.129c13.477,0,24.399,10.922,24.399,24.399c0,13.477-10.922,24.386-24.399,24.386
		c-13.477,0-24.386-10.91-24.386-24.386C395.489,317.052,406.398,306.129,419.875,306.129z"/>
	<path style="fill:#F95428;" d="M387.234,170.986c11.463,0,20.737,9.286,20.737,20.737c0,11.451-9.274,20.737-20.737,20.737
		c-11.451,0-20.724-9.286-20.724-20.737S375.784,170.986,387.234,170.986z"/>
	<path style="fill:#F95428;" d="M419.875,32.949c13.477,0,24.399,10.922,24.399,24.386c0,13.477-10.922,24.399-24.399,24.399
		c-13.477,0-24.386-10.922-24.386-24.399C395.489,43.871,406.398,32.949,419.875,32.949z"/>
	<path style="fill:#F95428;" d="M65.797,42.223c13.464,0,24.386,10.922,24.386,24.399S79.261,91.02,65.797,91.02
		c-13.477,0-24.399-10.922-24.399-24.399S52.321,42.223,65.797,42.223z"/>
</g>
<g>
	<path style="fill:#E6E6E6;" d="M297.843,9.431v115.086H11.702V9.431H297.843z M90.184,66.622c0-13.477-10.922-24.399-24.386-24.399
		c-13.477,0-24.399,10.922-24.399,24.399S52.321,91.02,65.797,91.02C79.261,91.02,90.184,80.098,90.184,66.622z"/>
	<rect x="11.702" y="124.51" style="fill:#E6E6E6;" width="286.141" height="260.081"/>
	<path style="fill:#E6E6E6;" d="M500.294,278.207v224.358H339.456V278.207H500.294L500.294,278.207z M444.274,330.528
		c0-13.477-10.922-24.399-24.399-24.399c-13.477,0-24.386,10.922-24.386,24.399c0,13.477,10.91,24.386,24.386,24.386
		C433.352,354.914,444.274,344.005,444.274,330.528z"/>
	<path style="fill:#E6E6E6;" d="M500.294,143.479v95.808H339.456v-95.808C339.456,143.479,500.294,143.479,500.294,143.479z
		 M407.971,191.723c0-11.451-9.274-20.737-20.737-20.737c-11.451,0-20.724,9.286-20.724,20.737c0,11.451,9.274,20.737,20.724,20.737
		C398.697,212.46,407.971,203.174,407.971,191.723z"/>
	<path style="fill:#E6E6E6;" d="M500.294,9.431v95.808H339.456V9.431H500.294z M444.274,57.335
		c0-13.464-10.922-24.386-24.399-24.386c-13.477,0-24.386,10.922-24.386,24.386c0,13.477,10.91,24.399,24.386,24.399
		C433.352,81.734,444.274,70.812,444.274,57.335z"/>
</g>
<g>
	<path style="fill:#333333;" d="M297.846,0H11.701C6.489,0,2.264,4.225,2.264,9.437v375.166c0,5.212,4.225,9.437,9.437,9.437
		h286.144c5.212,0,9.437-4.225,9.437-9.437V9.437C307.283,4.225,303.058,0,297.846,0z M288.409,18.875v96.201H21.138V18.875H288.409
		z M21.138,375.166V133.95h267.269v241.215L21.138,375.166L21.138,375.166z"/>
	<path style="fill:#333333;" d="M500.299,0H339.456c-5.212,0-9.437,4.225-9.437,9.437v95.803c0,5.212,4.225,9.437,9.437,9.437
		h160.843c5.212,0,9.437-4.225,9.437-9.437V9.437C509.736,4.225,505.511,0,500.299,0z M490.862,95.803H348.893V18.875h141.968
		V95.803z"/>
	<path style="fill:#333333;" d="M500.299,134.045H339.456c-5.212,0-9.437,4.225-9.437,9.437v95.803c0,5.212,4.225,9.437,9.437,9.437
		h160.843c5.212,0,9.437-4.225,9.437-9.437v-95.803C509.736,138.27,505.511,134.045,500.299,134.045z M490.862,229.849H348.893
		v-76.928h141.968V229.849z"/>
	<path style="fill:#333333;" d="M500.299,268.764H339.456c-5.212,0-9.437,4.225-9.437,9.437v224.362
		c0,5.212,4.225,9.437,9.437,9.437h160.843c5.212,0,9.437-4.225,9.437-9.437V278.201
		C509.736,272.989,505.511,268.764,500.299,268.764z M490.862,493.125H348.893V287.638h141.968V493.125z"/>
	<path style="fill:#333333;" d="M289.203,419.194H81.718c-1.871,0-3.701,0.556-5.256,1.599l-55.136,36.966
		c-2.614,1.753-4.181,4.692-4.181,7.838c0,3.146,1.568,6.086,4.181,7.838l55.136,36.966c1.554,1.042,3.384,1.599,5.256,1.599
		h207.485c3.59,0,6.868-2.036,8.46-5.253c12.744-25.768,12.744-56.534,0-82.3C296.07,421.23,292.793,419.194,289.203,419.194z
		 M76.862,487.945l-8.748-5.865c2.071-5.206,3.156-10.779,3.156-16.484c0-5.701-1.085-11.273-3.156-16.48l8.749-5.865
		C80.892,457.848,80.892,473.346,76.862,487.945z M98.325,475.034h146.906c-0.785,6.173-2.349,12.256-4.682,18.091H95.003
		C96.651,487.19,97.765,481.136,98.325,475.034z M245.231,456.16H98.325c-0.56-6.102-1.674-12.155-3.322-18.091h145.546
		C242.881,443.904,244.446,449.986,245.231,456.16z M51.792,460.057c0.395,1.804,0.601,3.659,0.601,5.539
		c0,1.882-0.206,3.737-0.601,5.543l-8.263-5.54L51.792,460.057z M283.087,493.125h-22.52c5.513-17.879,5.513-37.177,0-55.056h22.52
		C290.116,455.658,290.116,475.537,283.087,493.125z"/>
	<path style="fill:#333333;" d="M419.877,91.171c18.655,0,33.832-15.178,33.832-33.832s-15.178-33.832-33.832-33.832
		s-33.832,15.178-33.832,33.832S401.222,91.171,419.877,91.171z M419.877,42.381c8.247,0,14.958,6.711,14.958,14.958
		s-6.711,14.958-14.958,14.958s-14.958-6.711-14.958-14.958S411.629,42.381,419.877,42.381z"/>
	<path style="fill:#333333;" d="M387.24,221.894c16.637,0,30.173-13.536,30.173-30.173s-13.536-30.173-30.173-30.173
		c-16.637,0-30.173,13.536-30.173,30.173C357.067,208.358,370.602,221.894,387.24,221.894z M387.24,180.422
		c6.23,0,11.298,5.068,11.298,11.298c0,6.23-5.069,11.298-11.298,11.298c-6.23,0-11.298-5.068-11.298-11.298
		C375.942,185.491,381.009,180.422,387.24,180.422z"/>
	<path style="fill:#333333;" d="M419.877,364.358c18.655,0,33.832-15.178,33.832-33.832s-15.178-33.832-33.832-33.832
		s-33.832,15.178-33.832,33.832C386.045,349.18,401.222,364.358,419.877,364.358z M419.877,315.569
		c8.247,0,14.958,6.711,14.958,14.958c0,8.247-6.711,14.958-14.958,14.958s-14.958-6.711-14.958-14.958
		S411.629,315.569,419.877,315.569z"/>
	<path style="fill:#333333;" d="M65.794,100.455c18.655,0,33.832-15.178,33.832-33.832S84.448,32.792,65.794,32.792
		c-18.656,0-33.832,15.178-33.832,33.832S47.138,100.455,65.794,100.455z M65.794,51.666c8.247,0,14.958,6.711,14.958,14.958
		s-6.711,14.958-14.958,14.958c-8.248,0-14.958-6.711-14.958-14.958S57.545,51.666,65.794,51.666z"/>
	<path style="fill:#333333;" d="M441.592,187.017h25.454c5.212,0,9.437-4.225,9.437-9.437s-4.225-9.437-9.437-9.437h-25.454
		c-5.212,0-9.437,4.225-9.437,9.437S436.38,187.017,441.592,187.017z"/>
	<path style="fill:#333333;" d="M441.592,214.626h25.454c5.212,0,9.437-4.225,9.437-9.437s-4.225-9.437-9.437-9.437h-25.454
		c-5.212,0-9.437,4.225-9.437,9.437S436.38,214.626,441.592,214.626z"/>
	<path style="fill:#333333;" d="M377.675,397.88h84.404c5.212,0,9.437-4.225,9.437-9.437s-4.225-9.437-9.437-9.437h-84.404
		c-5.212,0-9.437,4.225-9.437,9.437S372.463,397.88,377.675,397.88z"/>
	<path style="fill:#333333;" d="M377.675,433.384h84.404c5.212,0,9.437-4.225,9.437-9.437s-4.225-9.437-9.437-9.437h-84.404
		c-5.212,0-9.437,4.225-9.437,9.437S372.463,433.384,377.675,433.384z"/>
	<path style="fill:#333333;" d="M377.675,468.886h84.404c5.212,0,9.437-4.225,9.437-9.437s-4.225-9.437-9.437-9.437h-84.404
		c-5.212,0-9.437,4.225-9.437,9.437S372.463,468.886,377.675,468.886z"/>
	<path style="fill:#333333;" d="M263.293,195.459H46.254c-5.212,0-9.437,4.225-9.437,9.437s4.225,9.437,9.437,9.437h217.038
		c5.212,0,9.437-4.225,9.437-9.437S268.505,195.459,263.293,195.459z"/>
	<path style="fill:#333333;" d="M263.293,235.652H46.254c-5.212,0-9.437,4.225-9.437,9.437s4.225,9.437,9.437,9.437h217.038
		c5.212,0,9.437-4.225,9.437-9.437S268.505,235.652,263.293,235.652z"/>
	<path style="fill:#333333;" d="M263.293,275.844H46.254c-5.212,0-9.437,4.225-9.437,9.437c0,5.212,4.225,9.437,9.437,9.437h217.038
		c5.212,0,9.437-4.225,9.437-9.437C272.73,280.07,268.505,275.844,263.293,275.844z"/>
	<path style="fill:#333333;" d="M263.293,334.794h-34.721c-5.212,0-9.437,4.225-9.437,9.437s4.225,9.437,9.437,9.437h34.721
		c5.212,0,9.437-4.225,9.437-9.437S268.505,334.794,263.293,334.794z"/>
	<path style="fill:#333333;" d="M106.43,174.142h96.688c5.212,0,9.437-4.225,9.437-9.437s-4.225-9.437-9.437-9.437H106.43
		c-5.212,0-9.437,4.225-9.437,9.437S101.218,174.142,106.43,174.142z"/>
</g>
</svg>